<?xml version="1.0" encoding="UTF-8" standalone="no"?>
<svg
   xmlns:dc="http://purl.org/dc/elements/1.1/"
   xmlns:cc="http://creativecommons.org/ns#"
   xmlns:rdf="http://www.w3.org/1999/02/22-rdf-syntax-ns#"
   xmlns:svg="http://www.w3.org/2000/svg"
   xmlns="http://www.w3.org/2000/svg"
   xmlns:sodipodi="http://sodipodi.sourceforge.net/DTD/sodipodi-0.dtd"
   xmlns:inkscape="http://www.inkscape.org/namespaces/inkscape"
   height="60px"
   version="1.1"
   viewBox="0 0 60 60"
   width="60px"
   id="svg5633"
   sodipodi:docname="instagram.svg"
   inkscape:version="0.92.0 r15299">
  <metadata
     id="metadata5637">
    <rdf:RDF>
      <cc:Work
         rdf:about="">
        <dc:format>image/svg+xml</dc:format>
        <dc:type
           rdf:resource="http://purl.org/dc/dcmitype/StillImage" />
      </cc:Work>
    </rdf:RDF>
  </metadata>
  <sodipodi:namedview
     pagecolor="#ffffff"
     bordercolor="#666666"
     borderopacity="1"
     objecttolerance="10"
     gridtolerance="10"
     guidetolerance="10"
     inkscape:pageopacity="0"
     inkscape:pageshadow="2"
     inkscape:window-width="1366"
     inkscape:window-height="705"
     id="namedview5635"
     showgrid="false"
     inkscape:zoom="3.9333333"
     inkscape:cx="30"
     inkscape:cy="30"
     inkscape:window-x="-8"
     inkscape:window-y="-8"
     inkscape:window-maximized="1"
     inkscape:current-layer="svg5633" />
  <title
     id="title5624" />
  <defs
     id="defs5626" />
  <path
     d="M 30,60 C 46.568543,60 60,46.568543 60,30 60,13.431457 46.568543,0 30,0 13.431457,0 0,13.431457 0,30 0,46.568543 13.431457,60 30,60 Z"
     id="Instagram"
     inkscape:connector-curvature="0"
     style="fill:#0f2446;fill-rule:evenodd;stroke:none;stroke-width:1;fill-opacity:1" />
  <path
     d="m 21.767361,24.230769 h -9.075053 v -1.153846 0 c 0,11.127703 0,18.076923 0,18.076923 0,4.999999 5,4.999999 5,4.999999 h 23.461537 c 0,0 5,0 5.000001,-4.999999 l -1e-6,-16.923077 h 1e-6 v -1.153846 h -9.807058 c -1.578819,-2.101927 -4.092488,-3.461538 -6.923711,-3.461538 -2.831223,0 -5.344892,1.359611 -6.923711,3.461538 h -9.807058 c 0,-1.700579 0,-3.498747 0,-5.384615 0,-3.156088 1.992178,-4.319998 3.461538,-4.749227 v 6.672304 h 1.153846 v -6.898487 0 c 0.240017,-0.02459 0.384616,-0.02459 0.384616,-0.02459 h 23.461538 c 0,0 4.999999,0 4.999999,5 v 6.538461 h -9.075053 c 0.637287,1.205607 0.998131,2.579894 0.998131,4.038462 0,4.779387 -3.874459,8.653846 -8.653846,8.653846 -4.779388,0 -8.653846,-3.874459 -8.653846,-8.653846 0,-1.458568 0.360844,-2.832855 0.99813,-4.038462 z M 40.078529,15 c -1.105457,0 -2.001606,0.901442 -2.001606,2.001606 v 1.766019 c 0,1.105456 0.901442,2.001606 2.001606,2.001606 h 1.766019 c 1.105456,0 2.001606,-0.901443 2.001606,-2.001606 V 17.001606 C 43.846154,15.896149 42.944711,15 41.844548,15 Z M 20.769231,12.692308 v 6.923077 h 1.153846 v -6.923077 z m -2.307693,0 v 6.923077 h 1.153847 v -6.923077 z m 10.961539,22.5 c 3.82351,0 6.923077,-3.099567 6.923077,-6.923077 0,-3.82351 -3.099567,-6.923077 -6.923077,-6.923077 -3.82351,0 -6.923077,3.099567 -6.923077,6.923077 0,3.82351 3.099567,6.923077 6.923077,6.923077 z m 0,-2.307693 c 2.549007,0 4.615384,-2.066378 4.615384,-4.615384 0,-2.549007 -2.066377,-4.615385 -4.615384,-4.615385 -2.549007,0 -4.615385,2.066378 -4.615385,4.615385 0,2.549006 2.066378,4.615384 4.615385,4.615384 z"
     id="path5629"
     inkscape:connector-curvature="0"
     style="fill:#ffffff;fill-rule:evenodd;stroke:none;stroke-width:1" />
</svg>
