<?xml version="1.0" encoding="utf-8"?>
<!-- Generator: Adobe Illustrator 22.0.1, SVG Export Plug-In . SVG Version: 6.00 Build 0)  -->
<svg version="1.1"
	 id="svg5633" inkscape:version="0.92.0 r15299" sodipodi:docname="instagram.svg" xmlns:cc="http://creativecommons.org/ns#" xmlns:dc="http://purl.org/dc/elements/1.1/" xmlns:inkscape="http://www.inkscape.org/namespaces/inkscape" xmlns:rdf="http://www.w3.org/1999/02/22-rdf-syntax-ns#" xmlns:sodipodi="http://sodipodi.sourceforge.net/DTD/sodipodi-0.dtd" xmlns:svg="http://www.w3.org/2000/svg"
	 xmlns="http://www.w3.org/2000/svg" xmlns:xlink="http://www.w3.org/1999/xlink" x="0px" y="0px" viewBox="0 0 60 60"
	 style="enable-background:new 0 0 60 60;" xml:space="preserve">
<style type="text/css">
	.st0{fill:#1C3664;}
	.st1{fill:#FFFFFF;}
</style>
<sodipodi:namedview  bordercolor="#666666" borderopacity="1" gridtolerance="10" guidetolerance="10" id="namedview5635" inkscape:current-layer="svg5633" inkscape:cx="30" inkscape:cy="30" inkscape:pageopacity="0" inkscape:pageshadow="2" inkscape:window-height="705" inkscape:window-maximized="1" inkscape:window-width="1366" inkscape:window-x="-8" inkscape:window-y="-8" inkscape:zoom="3.9333333" objecttolerance="10" pagecolor="#ffffff" showgrid="false">
	</sodipodi:namedview>
<title  id="title5624"></title>
<path id="Instagram" inkscape:connector-curvature="0" class="st0" d="M30,60c16.6,0,30-13.4,30-30S46.6,0,30,0S0,13.4,0,30
	S13.4,60,30,60z"/>
<path id="path5629" inkscape:connector-curvature="0" class="st1" d="M21.8,24.2h-9.1v-1.2l0,0c0,11.1,0,18.1,0,18.1c0,5,5,5,5,5
	h23.5c0,0,5,0,5-5V24.2l0,0v-1.2h-9.8c-1.6-2.1-4.1-3.5-6.9-3.5s-5.3,1.4-6.9,3.5h-9.8c0-1.7,0-3.5,0-5.4c0-3.2,2-4.3,3.5-4.7v6.7
	h1.2v-6.9l0,0c0.2,0,0.4,0,0.4,0h23.5c0,0,5,0,5,5v6.5h-9.1c0.6,1.2,1,2.6,1,4c0,4.8-3.9,8.7-8.7,8.7s-8.7-3.9-8.7-8.7
	C20.8,26.8,21.1,25.4,21.8,24.2z M40.1,15c-1.1,0-2,0.9-2,2v1.8c0,1.1,0.9,2,2,2h1.8c1.1,0,2-0.9,2-2V17c0-1.1-0.9-2-2-2H40.1z
	 M20.8,12.7v6.9h1.2v-6.9H20.8z M18.5,12.7v6.9h1.2v-6.9H18.5z M29.4,35.2c3.8,0,6.9-3.1,6.9-6.9s-3.1-6.9-6.9-6.9s-6.9,3.1-6.9,6.9
	S25.6,35.2,29.4,35.2z M29.4,32.9c2.5,0,4.6-2.1,4.6-4.6s-2.1-4.6-4.6-4.6s-4.6,2.1-4.6,4.6S26.9,32.9,29.4,32.9z"/>
</svg>
