<?xml version="1.0" encoding="utf-8"?>
<!-- Generator: Adobe Illustrator 22.0.1, SVG Export Plug-In . SVG Version: 6.00 Build 0)  -->
<svg version="1.1"
	 id="svg4507" inkscape:version="0.92.0 r15299" sodipodi:docname="twitter.svg" xmlns:cc="http://creativecommons.org/ns#" xmlns:dc="http://purl.org/dc/elements/1.1/" xmlns:inkscape="http://www.inkscape.org/namespaces/inkscape" xmlns:rdf="http://www.w3.org/1999/02/22-rdf-syntax-ns#" xmlns:sodipodi="http://sodipodi.sourceforge.net/DTD/sodipodi-0.dtd" xmlns:svg="http://www.w3.org/2000/svg"
	 xmlns="http://www.w3.org/2000/svg" xmlns:xlink="http://www.w3.org/1999/xlink" x="0px" y="0px" viewBox="0 0 60 60"
	 style="enable-background:new 0 0 60 60;" xml:space="preserve">
<style type="text/css">
	.st0{fill:#1C3664;}
	.st1{fill:#FFFFFF;}
</style>
<sodipodi:namedview  bordercolor="#666666" borderopacity="1" gridtolerance="10" guidetolerance="10" id="namedview4509" inkscape:current-layer="svg4507" inkscape:cx="30" inkscape:cy="30" inkscape:pageopacity="0" inkscape:pageshadow="2" inkscape:window-height="705" inkscape:window-maximized="1" inkscape:window-width="1366" inkscape:window-x="-8" inkscape:window-y="-8" inkscape:zoom="3.9333333" objecttolerance="10" pagecolor="#ffffff" showgrid="false">
	</sodipodi:namedview>
<title  id="title4498"></title>
<path id="Twitter" inkscape:connector-curvature="0" class="st0" d="M30,60c16.6,0,30-13.4,30-30S46.6,0,30,0S0,13.4,0,30
	S13.4,60,30,60z"/>
<path id="path4503" inkscape:connector-curvature="0" class="st1" d="M41.1,18.4c-1.2-1.4-2.9-2.3-4.8-2.3c-3.7-0.1-6.6,3-6.6,6.9
	c0,0.6,0.1,1.1,0.2,1.6c-5.5-0.4-10.4-3.2-13.7-7.5c-0.6,1-0.9,2.2-0.9,3.5c0,2.5,1.2,4.6,2.9,5.9c-1.1,0-2.1-0.4-3-0.9
	c0,0,0,0.1,0,0.1c0,3.4,2.3,6.3,5.3,7c-0.6,0.2-1.1,0.2-1.7,0.2c-0.4,0-0.8-0.1-1.2-0.1c0.8,2.8,3.3,4.9,6.2,4.9
	c-2.3,1.9-5.1,3-8.2,3c-0.5,0-1.1,0-1.6-0.1c2.9,2,6.4,3.2,10.2,3.2c12.2,0,18.9-10.6,18.9-19.8c0-0.3,0-0.6,0-0.9
	c1.3-1,2.4-2.2,3.3-3.6c-1.2,0.5-2.5,0.9-3.8,1c1.4-0.8,2.4-2.2,2.9-3.8C44,17.6,42.6,18.1,41.1,18.4z"/>
</svg>
